#!OML:ASF Y:\EmotionMaleHayes\Project 1\Capture day 1\Session 1\Male1.ASF
:FULLY-SPECIFIED
:DEGREES
77
root -29.7149 17.0635 0.996701 14.0353 85.1035 13.2856
lowerback 3.91401 1.32252 -3.03979
upperback 0.0107186 1.62698 -0.0611837
thorax -2.26621 0.846318 1.54551
lowerneck -20.1865 3.73308 4.81133
upperneck 26.8543 5.02863 -3.14103
head 12.4652 2.43888 -1.14359
rclavicle -3.71479e-015 4.4975e-015
rhumerus -34.8807 7.92031 -91.1545
rradius 29.9035
rwrist 7.9512
rhand -9.72029 -31.0715
rfingers 7.12502
rthumb 16.253 -60.4103
lclavicle -3.71479e-015 4.4975e-015
lhumerus -32.402 -6.54853 91.0574
lradius 24.2907
lwrist -12.3754
lhand -15.8031 -25.7468
lfingers 7.12502
lthumb 10.3901 3.97646
rfemur 6.62558 -3.22324 14.4514
rtibia 3.05034
rfoot -15.0642 -1.10436
rtoes 2.08841
lfemur 10.5134 0.28087 -16.2813
ltibia -2.36061
lfoot -11.2541 11.033
ltoes -4.41106
78
root -29.7147 17.0642 0.996407 13.4314 85.1318 12.6822
lowerback 3.91502 1.32024 -2.97841
upperback 0.0110037 1.62686 -0.0495213
thorax -2.26507 0.845582 1.52312
lowerneck -20.1287 3.72582 4.85152
upperneck 26.767 5.01727 -3.19291
head 12.421 2.43109 -1.17297
rclavicle -2.07481e-014 1.49089e-016
rhumerus -34.8761 7.92646 -91.1675
rradius 29.8761
rwrist 7.94636
rhand -9.8402 -30.9231
rfingers 7.12502
rthumb 16.1375 -60.2712
lclavicle -2.07481e-014 1.49089e-016
lhumerus -32.3587 -6.51077 91.0526
lradius 24.2347
lwrist -12.4331
lhand -15.8138 -25.7255
lfingers 7.12502
lthumb 10.3798 3.99833
rfemur 6.63984 -3.21081 14.5234
rtibia 3.04037
rfoot -15.0508 -1.15874
rtoes 2.42749
lfemur 10.5569 0.164886 -16.2523
ltibia -2.44123
lfoot -11.2841 11.123
ltoes -4.72818
79
root -29.7143 17.0675 0.997777 14.0753 85.104 13.3839
lowerback 3.98475 1.3312 -3.07419
upperback 0.0064937 1.63445 -0.0598795
thorax -2.31165 0.851112 1.56394
lowerneck -20.1418 3.7112 4.79664
upperneck 26.8706 4.9785 -3.05079
head 12.457 2.42844 -1.11587
rclavicle -7.26185e-015 -3.72721e-015
rhumerus -34.9246 8.03176 -91.2417
rradius 29.9291
rwrist 8.04705
rhand -9.91974 -31.1417
rfingers 7.12502
rthumb 16.0609 -60.4961
lclavicle -7.26185e-015 -3.72721e-015
lhumerus -32.3691 -6.44394 91.0375
lradius 24.2505
lwrist -12.4718
lhand -15.7527 -25.6513
lfingers 7.12502
lthumb 10.4387 4.06951
rfemur 6.70941 -3.11317 14.4617
rtibia 3.02879
rfoot -15.0556 -1.16124
rtoes 2.27928
lfemur 10.6318 0.160901 -16.3213
ltibia -2.46364
lfoot -11.3105 11.1192
ltoes -3.78244
80
root -29.7161 17.0685 0.999303 14.7943 85.0183 14.0642
lowerback 3.95514 1.34753 -3.16356
upperback -0.00112041 1.65259 -0.0844365
thorax -2.30566 0.861086 1.58818
lowerneck -20.2096 3.73202 4.8113
upperneck 26.9481 5.0102 -3.06714
head 12.5043 2.44142 -1.11803
rclavicle -3.48805e-015 3.13086e-015
rhumerus -34.8402 7.89448 -91.1416
rradius 29.8323
rwrist 8.12241
rhand -9.6004 -30.9145
rfingers 7.12502
rthumb 16.3684 -60.2438
lclavicle -3.48805e-015 3.13086e-015
lhumerus -32.2732 -6.22836 90.9394
lradius 24.1705
lwrist -12.6408
lhand -15.7021 -25.6761
lfingers 7.12502
lthumb 10.4876 4.04232
rfemur 6.62039 -3.02377 14.3905
rtibia 3.06678
rfoot -15.0679 -1.13061
rtoes 2.50042
lfemur 10.5649 0.174574 -16.3984
ltibia -2.40957
lfoot -11.3341 11.1031
ltoes -2.67907
81
root -29.7173 17.0671 0.999698 15.6 84.9989 14.8413
lowerback 3.90005 1.33517 -3.23767
upperback 0.0255175 1.63522 -0.0986395
thorax -2.24813 0.852153 1.61782
lowerneck -20.2056 3.74083 4.73228
upperneck 26.8499 5.02603 -3.01689
head 12.4609 2.44546 -1.08332
rclavicle -8.75274e-015 -5.54112e-015
rhumerus -34.7544 7.90191 -91.1081
rradius 29.7888
rwrist 8.14052
rhand -9.38667 -30.8859
rfingers 7.12502
rthumb 16.5742 -60.1981
lclavicle -8.75274e-015 -5.54112e-015
lhumerus -32.3321 -6.42012 91.0142
lradius 24.3201
lwrist -12.3368
lhand -15.6836 -25.5901
lfingers 7.12502
lthumb 10.5054 4.12742
rfemur 6.58649 -3.02794 14.3137
rtibia 3.04599
rfoot -15.1329 -1.20592
rtoes 1.96369
lfemur 10.4771 0.258517 -16.4529
ltibia -2.31616
lfoot -11.27 11.0346
ltoes -3.07905
82
root -29.717 17.0653 0.999921 16.7987 85.0321 16.0929
lowerback 3.91793 1.32126 -3.35482
upperback 0.064081 1.61153 -0.113367
thorax -2.22007 0.840838 1.66986
lowerneck -20.2357 3.75529 4.78566
upperneck 26.8395 5.05866 -3.12308
head 12.4694 2.45043 -1.12673
rclavicle 2.39644e-014 -1.50828e-014
rhumerus -34.7341 7.99949 -91.134
rradius 29.8205
rwrist 7.99032
rhand -9.63434 -30.6354
rfingers 7.12502
rthumb 16.3357 -59.9674
lclavicle 2.39644e-014 -1.50828e-014
lhumerus -32.2618 -6.34666 91.0143
lradius 24.2661
lwrist -12.3761
lhand -15.6673 -25.5881
lfingers 7.12502
lthumb 10.5211 4.1286
rfemur 6.68323 -3.09998 14.1834
rtibia 2.99247
rfoot -15.1675 -1.27126
rtoes 0.959142
lfemur 10.3983 0.761083 -16.4047
ltibia -2.07354
lfoot -11.1448 10.5622
ltoes -4.01143
83
root -29.7153 17.0648 0.999905 17.2837 85.028 16.6002
lowerback 3.90364 1.33237 -3.40832
upperback 0.0769102 1.62477 -0.118475
thorax -2.20094 0.847599 1.69426
lowerneck -20.2178 3.72745 4.79008
upperneck 26.817 5.02935 -3.16408
head 12.4567 2.43262 -1.14836
rclavicle -1.87137e-014 4.62174e-015
rhumerus -34.7727 8.03921 -91.1456
rradius 29.8839
rwrist 7.87774
rhand -9.83646 -30.5718
rfingers 7.12502
rthumb 16.1411 -59.9197
lclavicle -1.87137e-014 4.62174e-015
lhumerus -32.1928 -6.26128 90.9948
lradius 24.2039
lwrist -12.4914
lhand -15.604 -25.6083
lfingers 7.12502
lthumb 10.5821 4.10528
rfemur 6.72542 -3.13503 14.1137
rtibia 2.99105
rfoot -15.0908 -1.2198
rtoes 0.944573
lfemur 10.3571 1.14895 -16.3393
ltibia -1.93715
lfoot -11.0682 10.2214
ltoes -4.46405
84
root -29.7134 17.0643 0.99956 16.8797 85.0662 16.1812
lowerback 3.84833 1.3157 -3.35576
upperback 0.0802807 1.60743 -0.0976446
thorax -2.16461 0.837853 1.68864
lowerneck -20.1935 3.72132 4.77329
upperneck 26.8065 5.02823 -3.16717
head 12.4471 2.4304 -1.14726
rclavicle -6.47758e-015 5.64051e-015
rhumerus -34.81 8.04404 -91.1355
rradius 29.9036
rwrist 7.87901
rhand -9.80859 -30.676
rfingers 7.12502
rthumb 16.168 -60.0217
lclavicle -6.47758e-015 5.64051e-015
lhumerus -32.1853 -6.39343 91.041
lradius 24.2132
lwrist -12.3378
lhand -15.6181 -25.5755
lfingers 7.12502
lthumb 10.5685 4.13877
rfemur 6.7356 -3.13743 14.1654
rtibia 2.99262
rfoot -15.058 -1.216
rtoes 0.882846
lfemur 10.4741 0.705512 -16.4331
ltibia -2.20141
lfoot -11.0711 10.6546
ltoes -4.41875
85
root -29.714 17.0621 0.999166 16.6034 85.11 15.8639
lowerback 3.79059 1.28922 -3.31601
upperback 0.087563 1.5765 -0.0826107
thorax -2.12235 0.821332 1.6851
lowerneck -20.207 3.74681 4.76547
upperneck 26.8053 5.06078 -3.14906
head 12.4502 2.44601 -1.13335
rclavicle 6.45429e-015 -1.26725e-015
rhumerus -34.7971 8.06352 -91.1374
rradius 29.8898
rwrist 7.90911
rhand -9.77504 -30.6312
rfingers 7.12502
rthumb 16.2003 -59.9742
lclavicle 6.45429e-015 -1.26725e-015
lhumerus -32.1736 -6.43897 91.0637
lradius 24.212
lwrist -12.2617
lhand -16.1367 -25.592
lfingers 7.12502
lthumb 10.0683 4.14716
rfemur 6.70058 -3.12043 14.2179
rtibia 2.98807
rfoot -15.0756 -1.24922
rtoes 1.30413
lfemur 10.51 0.275476 -16.5182
ltibia -2.37042
lfoot -11.159 10.9994
ltoes -3.51593
